<svg id="bc92e491-6f57-4641-9903-59898166a719" data-name="Layer 3" xmlns="http://www.w3.org/2000/svg" viewBox="0 0 100 100"><defs><style>.a01d4ce9-5f25-4de3-bc22-79f4e75cc707{fill:#111;}.af5c447a-9790-4359-967a-9b897792f85d{fill:#8a59a4;}.f7765de9-e1ed-4c81-b1d8-e17ccf42591b{fill:#623d79;}</style></defs><circle class="a01d4ce9-5f25-4de3-bc22-79f4e75cc707" cx="50" cy="50" r="50"/><path class="af5c447a-9790-4359-967a-9b897792f85d" d="M32,83.6H50.09a0,0,0,0,1,0,0V90a0,0,0,0,1,0,0H34.5A2.5,2.5,0,0,1,32,87.5V83.6A0,0,0,0,1,32,83.6Z"/><path class="af5c447a-9790-4359-967a-9b897792f85d" d="M50.0973,10V46H20.04707a2.5,2.5,0,0,1-1.76538-4.27015Z"/><path class="f7765de9-e1ed-4c81-b1d8-e17ccf42591b" d="M52.41,83.6H68a0,0,0,0,1,0,0V90a0,0,0,0,1,0,0H49.91a0,0,0,0,1,0,0V86.1A2.5,2.5,0,0,1,52.41,83.6Z" transform="translate(117.91 173.6) rotate(-180)"/><path class="f7765de9-e1ed-4c81-b1d8-e17ccf42591b" d="M49.9027,10V46H79.95293a2.5,2.5,0,0,0,1.76538-4.27015Z"/><path class="af5c447a-9790-4359-967a-9b897792f85d" d="M32,73.2H50.09a0,0,0,0,1,0,0v6.4a0,0,0,0,1,0,0H34.5A2.5,2.5,0,0,1,32,77.1V73.2A0,0,0,0,1,32,73.2Z"/><path class="f7765de9-e1ed-4c81-b1d8-e17ccf42591b" d="M52.41,73.2H68a0,0,0,0,1,0,0v6.4a0,0,0,0,1,0,0H49.91a0,0,0,0,1,0,0V75.7A2.5,2.5,0,0,1,52.41,73.2Z" transform="translate(117.91 152.8) rotate(-180)"/><path class="af5c447a-9790-4359-967a-9b897792f85d" d="M31.91,38.72H50a0,0,0,0,1,0,0V69.2a0,0,0,0,1,0,0H34.41a2.5,2.5,0,0,1-2.5-2.5V38.72A0,0,0,0,1,31.91,38.72Z"/><path class="f7765de9-e1ed-4c81-b1d8-e17ccf42591b" d="M49.91,38.72H68a0,0,0,0,1,0,0V66.7a2.5,2.5,0,0,1-2.5,2.5H49.91a0,0,0,0,1,0,0V38.72A0,0,0,0,1,49.91,38.72Z"/></svg>