<svg id="a2138c0f-df9b-4795-94d8-3da2cebec9d3" data-name="Layer 3" xmlns="http://www.w3.org/2000/svg" viewBox="0 0 82.91588 100"><defs><style>.b94b3833-7f4b-47bb-a295-d0fcbe793684{fill:#8a59a4;}.f6978bdd-96d7-44b6-b883-b537f83daedc{fill:#623d79;}</style></defs><path class="b94b3833-7f4b-47bb-a295-d0fcbe793684" d="M18.95794,92h22.6125a0,0,0,0,1,0,0v8a0,0,0,0,1,0,0H21.45794a2.5,2.5,0,0,1-2.5-2.5V92A0,0,0,0,1,18.95794,92Z"/><path class="b94b3833-7f4b-47bb-a295-d0fcbe793684" d="M50.12162,0V45H11.04707a2.5,2.5,0,0,1-1.76538-4.27015Z" transform="translate(-8.54206 0)"/><path class="f6978bdd-96d7-44b6-b883-b537f83daedc" d="M52.3875,92H72.5a0,0,0,0,1,0,0v8a0,0,0,0,1,0,0H49.8875a0,0,0,0,1,0,0V94.5A2.5,2.5,0,0,1,52.3875,92Z" transform="translate(113.84544 192) rotate(-180)"/><path class="f6978bdd-96d7-44b6-b883-b537f83daedc" d="M49.87838,0V45H88.95293a2.5,2.5,0,0,0,1.76538-4.27015Z" transform="translate(-8.54206 0)"/><path class="b94b3833-7f4b-47bb-a295-d0fcbe793684" d="M18.95794,79h22.6125a0,0,0,0,1,0,0v8a0,0,0,0,1,0,0H21.45794a2.5,2.5,0,0,1-2.5-2.5V79A0,0,0,0,1,18.95794,79Z"/><path class="f6978bdd-96d7-44b6-b883-b537f83daedc" d="M52.3875,79H72.5a0,0,0,0,1,0,0v8a0,0,0,0,1,0,0H49.8875a0,0,0,0,1,0,0V81.5A2.5,2.5,0,0,1,52.3875,79Z" transform="translate(113.84544 166) rotate(-180)"/><path class="b94b3833-7f4b-47bb-a295-d0fcbe793684" d="M18.84544,35.9h22.6125a0,0,0,0,1,0,0V74a0,0,0,0,1,0,0H21.34544a2.5,2.5,0,0,1-2.5-2.5V35.9A0,0,0,0,1,18.84544,35.9Z"/><path class="f6978bdd-96d7-44b6-b883-b537f83daedc" d="M41.34544,35.9h22.6125a0,0,0,0,1,0,0V71.5a2.5,2.5,0,0,1-2.5,2.5H41.34544a0,0,0,0,1,0,0V35.9A0,0,0,0,1,41.34544,35.9Z"/></svg>